<svg width="24" height="24" xmlns="http://www.w3.org/2000/svg">
 <title/>

 <g>
  <title>background</title>
  <rect fill="none" id="canvas_background" height="402" width="582" y="-1" x="-1"/>
 </g>
 <g>
  <title>Layer 1</title>
  <path fill="#ffffff" id="svg_1" d="m14.717,18.695l4.375,0l0,-1.325l-4.377,0l0,1.325l0.002,0zm-9.81,0l4.373,0l0,-1.325l-4.374,0l0,1.325l0.004,0l-0.003,0zm-4.907,0l4.375,0l0,-1.325l-4.375,0l0,1.325zm9.81,0l4.38,0l0,-1.325l-4.38,0l0,1.325zm9.815,0l4.375,0l0,-1.325l-4.375,0l0,1.325zm0,-1.724l4.375,0l0,-1.32l-4.375,0l0,1.34l0,-0.01l0,-0.01zm-9.814,0l4.39,0l0,-1.32l-4.391,0l0,1.34l0,-0.01l0.001,-0.01zm-9.81,0l4.38,0l0,-1.32l-4.381,0l0,1.34l0,-0.01l0.001,-0.01zm4.91,0l4.38,0l0,-1.32l-4.381,0l0,1.34l0.002,-0.01l-0.001,-0.01zm9.83,0l4.38,0l0,-1.32l-4.4,0l0,1.34l0.017,-0.01l0.003,-0.01zm0,-1.72l4.38,0l0,-1.32l-4.4,0l0,1.33l0.017,0l0.003,-0.01zm-9.805,0l4.36,0l0,-1.32l-4.386,0l0,1.33l0.016,0l0.01,-0.01zm-4.906,0l4.36,0l0,-1.32l-4.39,0l0,1.33l0.016,0l0.014,-0.01zm9.81,0l4.38,0l0,-1.32l-4.4,0l0,1.33l0.016,0l0.004,-0.01zm9.825,0l4.335,0l0,-1.32l-4.375,0l0,1.33l0.027,0l0.013,-0.01zm0,-1.72l4.335,0l0,-1.331l-4.375,0l0,1.326l0.027,0l0.013,0.005zm-9.81,0l4.363,0l0,-1.331l-4.4,0l0,1.326l0.033,0l0.004,0.005zm-9.81,0l4.355,0l0,-1.331l-4.4,0l0,1.326l0.03,0l0.015,0.005zm14.73,0l4.38,0l0,-1.331l-4.43,0l0,1.326l0.044,0l0.006,0.005zm0,-1.72l4.38,0l0,-1.33l-4.43,0l0,1.32l0.044,0l0.006,0.01zm-14.73,0l4.355,0l0,-1.32l-4.4,0l0,1.32l0.03,0l0.015,0zm9.81,0l4.38,0l0,-1.32l-4.425,0l0,1.32l0.032,0l0.013,0zm9.81,0l4.335,0l0,-1.33l-4.375,0l0,1.328l0.027,-0.002l0.013,0.004zm-9.842,-1.727l4.38,0l0,-1.33l-4.393,0l0,1.326l0.013,0.004zm19.657,1.725l-5.48,0l0,-3.056l-4.375,0l0,1.325l9.855,1.731zm-9.815,-1.723l4.38,0l0,-3.058l-14.235,0l0,1.327l9.855,1.731zm19.63,1.723l-15.295,0l0,-4.781l-4.375,0l0,1.327l19.67,3.454zm0,-1.725l-15.295,0l0,-4.78l-4.375,0l0,1.326l19.67,3.454z"/>
 </g>
</svg>