<svg width="128" height="128" xmlns="http://www.w3.org/2000/svg">

 <g>
  <title>background</title>
  <rect fill="none" id="canvas_background" height="402" width="582" y="-1" x="-1"/>
 </g>
 <g>
  <title>Layer 1</title>
  <rect id="svg_1" width="128" height="128" fill-rule="evenodd" fill="none" clip-rule="evenodd"/>
  <path id="Instagram" fill-rule="evenodd" fill="#ffffff" d="m105.843002,29.837c0,4.241999 -3.439003,7.679998 -7.68,7.679998c-4.241005,0 -7.68,-3.438 -7.68,-7.679998c0,-4.242001 3.438995,-7.68 7.68,-7.68c4.241997,0 7.68,3.438 7.68,7.68zm-41.843002,55.496c-11.782001,0 -21.333,-9.551003 -21.333,-21.333c0,-11.782001 9.550999,-21.333 21.333,-21.333c11.781998,0 21.333,9.550999 21.333,21.333c0,11.781998 -9.551003,21.333 -21.333,21.333zm0,-54.198c-18.151001,0 -32.865,14.713999 -32.865,32.865c0,18.151001 14.713999,32.864998 32.865,32.864998c18.151001,0 32.864998,-14.713997 32.864998,-32.864998c0,-18.151001 -14.713997,-32.865 -32.864998,-32.865zm0,-19.603001c17.088997,0 19.112999,0.065001 25.861,0.373c6.239998,0.285 9.628998,1.327001 11.884003,2.204c2.987,1.161 5.118996,2.547999 7.358994,4.787999c2.240005,2.239 3.627007,4.371 4.788002,7.359001c0.875999,2.254999 1.918999,5.643999 2.204002,11.883999c0.307999,6.749001 0.373001,8.772999 0.373001,25.862c0,17.089005 -0.065002,19.112999 -0.373001,25.861c-0.285004,6.239998 -1.327003,9.628998 -2.204002,11.884003c-1.160995,2.987 -2.547997,5.118996 -4.788002,7.359001c-2.238998,2.239998 -4.370995,3.626999 -7.358994,4.787994c-2.255005,0.875999 -5.644005,1.919006 -11.884003,2.204002c-6.748001,0.307999 -8.772003,0.373001 -25.861,0.373001c-17.09,0 -19.113998,-0.065002 -25.862,-0.373001c-6.24,-0.284996 -9.629,-1.326996 -11.884001,-2.204002c-2.987,-1.160995 -5.118999,-2.547997 -7.358999,-4.787994c-2.239,-2.239006 -3.627001,-4.371002 -4.788,-7.359001c-0.876,-2.255005 -1.919001,-5.644005 -2.204,-11.884003c-0.308,-6.749001 -0.373,-8.773003 -0.373,-25.861c0,-17.089001 0.065001,-19.112999 0.373,-25.862c0.285,-6.24 1.327,-9.629 2.204,-11.883999c1.160999,-2.987001 2.548,-5.119001 4.788,-7.359001c2.239,-2.24 4.371,-3.626999 7.358999,-4.787999c2.255001,-0.876 5.644001,-1.919001 11.884001,-2.204c6.749001,-0.308 8.772999,-0.373 25.862,-0.373zm0,-11.532c-17.381001,0 -19.561001,0.074 -26.387001,0.385c-6.811998,0.311 -11.464998,1.393 -15.535,2.975c-4.209,1.635 -7.777999,3.824 -11.335999,7.382c-3.558,3.558001 -5.747,7.127 -7.382,11.335999c-1.582,4.071001 -2.664,8.723001 -2.975,15.535c-0.311,6.826 -0.385,9.006001 -0.385,26.387001c0,17.380997 0.074,19.560997 0.385,26.387001c0.311,6.811996 1.393,11.463997 2.975,15.534996c1.635,4.209 3.824,7.778 7.382,11.336006c3.558001,3.557999 7.127,5.745995 11.335999,7.381996c4.071001,1.582001 8.723001,2.664001 15.535,2.974998c6.826,0.311005 9.006001,0.385002 26.387001,0.385002c17.380997,0 19.560997,-0.073997 26.387001,-0.385002c6.811996,-0.310997 11.463997,-1.392998 15.534996,-2.974998c4.209,-1.636002 7.778,-3.823997 11.336006,-7.381996c3.557999,-3.558006 5.745995,-7.127007 7.381996,-11.336006c1.582001,-4.070999 2.664001,-8.723 2.974998,-15.534996c0.311005,-6.826004 0.385002,-9.006004 0.385002,-26.387001c0,-17.381001 -0.073997,-19.561001 -0.385002,-26.387001c-0.310997,-6.811998 -1.392998,-11.463999 -2.974998,-15.535c-1.636002,-4.209 -3.823997,-7.777999 -7.381996,-11.335999c-3.558006,-3.558 -7.127007,-5.746 -11.336006,-7.382c-4.070999,-1.582 -8.723,-2.664 -15.534996,-2.975c-6.826004,-0.311 -9.006004,-0.385 -26.387001,-0.385z" clip-rule="evenodd"/>
 </g>
</svg>