<svg width="1024" height="1024" xmlns="http://www.w3.org/2000/svg">

 <g>
  <title>background</title>
  <rect fill="none" id="canvas_background" height="402" width="582" y="-1" x="-1"/>
 </g>
 <g>
  <title>Layer 1</title>
  <path fill="#ffffff" id="XMLID_388_" d="m271,269.1l0,80.8c0,13.3 -10.8,24.1 -24.1,24.1l-42.9,0l0,506l-40,0l0,-506l-40.9,0c-13.3,0 -24.1,-10.8 -24.1,-24.1l0,-80.8c0,-13.3 10.8,-24.1 24.1,-24.1l40.9,0l0,-101l40,0l0,101l42.9,0c13.3,0 24.1,10.8 24.1,24.1z"/>
  <path fill="#ffffff" id="XMLID_381_" d="m598,680.1l0,80.8c0,13.3 -10.8,24.1 -24.1,24.1l-42.9,0l0,95l-40,0l0,-95l-40.9,0c-13.3,0 -24.1,-10.8 -24.1,-24.1l0,-80.8c0,-13.3 10.8,-24.1 24.1,-24.1l40.9,0l0,-512l40,0l0,512l42.9,0c13.3,0 24.1,10.8 24.1,24.1z"/>
  <path fill="#ffffff" id="XMLID_372_" d="m925,418.1l0,80.8c0,13.3 -10.8,24.1 -24.1,24.1l-41.9,0l0,357l-40,0l0,-357l-41.9,0c-13.3,0 -24.1,-10.8 -24.1,-24.1l0,-80.8c0,-13.3 10.8,-24.1 24.1,-24.1l41.9,0l0,-250l40,0l0,250l41.9,0c13.3,0 24.1,10.8 24.1,24.1z"/>
 </g>
</svg>