<svg width="56.7" height="56.7" xmlns="http://www.w3.org/2000/svg">

 <g>
  <title>background</title>
  <rect fill="none" id="canvas_background" height="402" width="582" y="-1" x="-1"/>
 </g>
 <g>
  <title>Layer 1</title>
  <path fill="#ffffff" id="svg_3" d="m53.048,28.4457c0,-3.1373 -2.552502,-5.689899 -5.689899,-5.689899c-1.395599,0 -2.711601,0.5049 -3.750603,1.419001c-3.762699,-2.407902 -8.783398,-3.925001 -14.321499,-4.088402l3.388599,-11.590299l8.320103,1.545799c-0.000401,0.0676 -0.0135,0.1321 -0.010002,0.2004c0.101002,1.9801 1.7938,3.5086 3.774002,3.4076c1.98,-0.101001 3.508598,-1.7939 3.4076,-3.7739c-0.101002,-1.980101 -1.7938,-3.5086 -3.773903,-3.4076c-1.2785,0.0652 -2.3605,0.7985 -2.945499,1.8398c-0.000999,-0.000299 -0.0019,-0.000999 -0.002998,-0.0012l-10.026001,-1.8626l-3.993401,13.638801c-5.5515,0.147999 -10.5881,1.6563 -14.367,4.059799c-1.0335,-0.8944 -2.3358,-1.387199 -3.7156,-1.387199c-3.1372,0 -5.6899,2.5525 -5.6899,5.689899c0,1.9405 0.999,3.729898 2.6167,4.773901c-0.0983,0.567799 -0.1544,1.144299 -0.1544,1.729599c0,8.2127 9.9554,14.894802 22.193399,14.894802s22.1933,-6.682201 22.1933,-14.894802c0,-0.568401 -0.0522,-1.1283 -0.1451,-1.680298c1.6623,-1.036003 2.692101,-2.852201 2.692101,-4.823202zm-35.2878,3.872599c0,-1.929798 1.564999,-3.495598 3.497499,-3.495598c1.9307,0 3.495701,1.5658 3.495701,3.495598c0,1.931602 -1.565001,3.496601 -3.495701,3.496601c-1.932501,0 -3.497499,-1.564999 -3.497499,-3.496601zm18.789898,9.457203c-0.104198,0.108997 -2.613197,2.661499 -8.283298,2.661499c-5.6992,0 -7.979099,-2.587902 -8.073,-2.697701c-0.321301,-0.375198 -0.2775,-0.9403 0.0977,-1.260498c0.373301,-0.318401 0.9328,-0.277401 1.254999,0.092098c0.051102,0.055901 1.954,2.0788 6.7204,2.0788c4.849201,0 6.975399,-2.094601 6.996799,-2.115002c0.343502,-0.349998 0.9086,-0.358398 1.261402,-0.0149c0.3508,0.342503 0.363899,0.9011 0.024998,1.255703zm-0.6954,-5.960602c-1.932598,0 -3.497498,-1.564999 -3.497498,-3.496601c0,-1.929798 1.564999,-3.495598 3.497498,-3.495598c1.930801,0 3.495701,1.5658 3.495701,3.495598c0,1.931602 -1.564899,3.496601 -3.495701,3.496601z"/>
 </g>
</svg>