<svg width="24" height="24" xmlns="http://www.w3.org/2000/svg">
 <title/>

 <g>
  <title>background</title>
  <rect fill="none" id="canvas_background" height="402" width="582" y="-1" x="-1"/>
 </g>
 <g>
  <title>Layer 1</title>
  <path fill="#ffffff" id="svg_1" d="m1.175,12.225c-0.051,0 -0.094,0.046 -0.101,0.099999l-0.233,2.154l0.233,2.105c0.007,0.058001 0.05,0.098 0.101,0.098c0.05,0 0.09,-0.039999 0.099,-0.098l0.255,-2.105l-0.27,-2.154c0,-0.057 -0.045,-0.099999 -0.09,-0.099999m-0.899,0.828c-0.06,0 -0.091,0.037 -0.104,0.094l-0.166,1.332l0.165,1.308c0,0.055 0.045,0.094 0.09,0.094s0.089,-0.044999 0.104,-0.103999l0.21,-1.319l-0.21,-1.334001c0,-0.061 -0.044,-0.089999 -0.09,-0.089999m1.83,-1.229c-0.061,0 -0.12,0.045 -0.12,0.104l-0.21,2.563l0.225,2.458c0,0.059999 0.045,0.119999 0.119,0.119999c0.061,0 0.105,-0.060999 0.121,-0.119999l0.254,-2.474l-0.254,-2.548c-0.016,-0.06 -0.061,-0.12 -0.121,-0.12m0.945,-0.089c-0.075,0 -0.135,0.059999 -0.15,0.134999l-0.193,2.64l0.21,2.544c0.016,0.077 0.075,0.138 0.149,0.138c0.075,0 0.135,-0.061001 0.15,-0.15l0.24,-2.532001l-0.24,-2.623c0,-0.075 -0.06,-0.135 -0.135,-0.135l-0.031,-0.016999zm1.155,0.36c-0.005,-0.09 -0.075,-0.149 -0.159,-0.149c-0.09,0 -0.158,0.06 -0.164,0.149l-0.217,2.43l0.2,2.563c0,0.09 0.075,0.157 0.159,0.157c0.074,0 0.148,-0.067999 0.148,-0.157999l0.227,-2.563001l-0.227,-2.444l0.033,0.015zm0.809,-1.709c-0.101,0 -0.18,0.089999 -0.18,0.181l-0.21,3.957l0.187,2.563001c0,0.09 0.08,0.164 0.18,0.164c0.094,0 0.174,-0.09 0.18,-0.18l0.209,-2.563l-0.209,-3.972c-0.008,-0.104 -0.088,-0.18 -0.18,-0.18m0.959,-0.914c-0.105,0 -0.195,0.09 -0.203,0.194l-0.18,4.872l0.165,2.548c0,0.119999 0.09,0.209 0.195,0.209c0.104,0 0.194,-0.089001 0.21,-0.209l0.193,-2.548l-0.192,-4.856c-0.016,-0.12 -0.105,-0.21 -0.21,-0.21m0.989,-0.449c-0.121,0 -0.211,0.089 -0.225,0.209001l-0.165,5.275l0.165,2.52c0.014,0.118999 0.104,0.225 0.225,0.225c0.119,0 0.225,-0.105001 0.225,-0.225l0.195,-2.52l-0.196,-5.275c0,-0.120001 -0.105,-0.225 -0.225,-0.225m1.245,0.045c0,-0.135 -0.105,-0.24 -0.24,-0.24c-0.119,0 -0.24,0.105 -0.24,0.24l-0.149,5.441l0.149,2.503c0.016,0.135 0.121,0.24 0.256,0.24s0.24,-0.105 0.24,-0.24l0.164,-2.503l-0.164,-5.456l-0.016001,0.015zm0.749001,-0.134c-0.135,0 -0.255,0.118999 -0.255,0.254l-0.150001,5.322001l0.150001,2.472999c0,0.150002 0.12,0.255001 0.255,0.255001s0.255,-0.120001 0.255,-0.27l0.15,-2.474l-0.165,-5.307c0,-0.148 -0.12,-0.27 -0.271,-0.27m1.005,0.166c-0.164001,0 -0.284,0.134999 -0.284,0.285l-0.103,5.143l0.135,2.474c0,0.149 0.118999,0.277 0.283999,0.277c0.149,0 0.271,-0.120001 0.284,-0.285l0.121,-2.443001l-0.135,-5.112c-0.012,-0.164001 -0.135,-0.285 -0.285,-0.285m1.184,-0.945001c-0.045,-0.028999 -0.105,-0.044 -0.165,-0.044s-0.119,0.015 -0.165001,0.044c-0.089999,0.054 -0.148999,0.150001 -0.148999,0.255l0,0.061l-0.104,6.048l0.115,2.449l0,0.007999c0.008,0.059999 0.03,0.135 0.074,0.18c0.058,0.061001 0.141999,0.104 0.233999,0.104c0.08,0 0.158,-0.044001 0.209001,-0.09c0.058,-0.059999 0.091,-0.135 0.091,-0.225l0.015,-0.24l0.117,-2.203l-0.135,-6.085999c0,-0.104 -0.061,-0.193 -0.134999,-0.239l-0.002,-0.022zm1.006,-0.546999c-0.045,-0.045 -0.09,-0.061 -0.15,-0.061c-0.074,0 -0.149,0.016 -0.209001,0.061c-0.075,0.061 -0.118999,0.15 -0.118999,0.24l0,0.029l-0.137,6.609l0.076,1.215l0.061,1.184999c0,0.164 0.148,0.314001 0.328,0.314001c0.181,0 0.33,-0.150002 0.33,-0.329l0.15,-2.414001l-0.15,-6.637c0,-0.12 -0.074,-0.221 -0.165,-0.277m8.934,3.776999c-0.405001,0 -0.795,0.086 -1.139,0.232c-0.24,-2.654 -2.460001,-4.736 -5.188001,-4.736c-0.658999,0 -1.304999,0.135 -1.889,0.359c-0.224999,0.09 -0.27,0.18 -0.285,0.359l0,9.368001c0.016,0.18 0.15,0.33 0.33,0.344999l8.185,0c1.618999,0.016001 2.938,-1.288 2.938,-2.922s-1.319,-2.952 -2.938,-2.952"/>
 </g>
</svg>