<svg width="56.69" height="56.69" xmlns="http://www.w3.org/2000/svg">

 <g>
  <title>background</title>
  <rect fill="none" id="canvas_background" height="402" width="582" y="-1" x="-1"/>
 </g>
 <g>
  <title>Layer 1</title>
  <path fill="#ffffff" id="svg_1" d="m28.341101,3.813c-13.593201,0 -24.613001,11.019 -24.613001,24.6122s11.0198,24.612902 24.613001,24.612902c13.593599,0 24.613298,-11.019703 24.613298,-24.612902s-11.019798,-24.6122 -24.613298,-24.6122zm9.9853,36.2266c-0.3979,0 -0.669899,-0.138 -1.041801,-0.364601c-3.567501,-2.158001 -8.014999,-3.292099 -12.7356,-3.292099c-2.6336,0 -5.284201,0.337399 -7.763399,0.853298c-0.403,0.087601 -0.9103,0.243603 -1.213201,0.243603c-0.9347,0 -1.558001,-0.743103 -1.558001,-1.546803c0,-1.034798 0.596601,-1.549 1.338901,-1.690998c3.039999,-0.692699 6.0676,-1.088299 9.212299,-1.088299c5.3857,0 10.1859,1.235699 14.3165,3.711098c0.6147,0.3591 0.975002,0.7253 0.975002,1.635902c0.000099,0.887299 -0.721203,1.538898 -1.530701,1.538898zm2.681999,-6.5145c-0.5341,0 -0.870399,-0.215599 -1.233002,-0.426601c-4.003799,-2.375999 -9.552898,-3.954599 -15.629498,-3.954599c-3.1168,0 -5.806601,0.436001 -8.0333,1.0294c-0.4798,0.1318 -0.749001,0.2738 -1.197701,0.2738c-1.0585,0 -1.9226,-0.8626 -1.9226,-1.9296c0,-1.046499 0.5073,-1.767099 1.5309,-2.0557c2.766999,-0.7598 5.592099,-1.3459 9.704499,-1.3459c6.442701,0 12.675102,1.604601 17.574902,4.5368c0.821499,0.4716 1.124001,1.068899 1.124001,1.9454c0.000198,1.066 -0.848503,1.927 -1.918201,1.927zm3.0536,-7.576302c-0.501099,0 -0.798599,-0.121799 -1.268299,-0.379c-4.454903,-2.671099 -11.368401,-4.1423 -18.054701,-4.1423c-3.3375,0 -6.7274,0.339399 -9.8325,1.181801c-0.3576,0.09 -0.8094,0.269199 -1.2621,0.269199c-1.3129,0 -2.3201,-1.038601 -2.3201,-2.3515c0,-1.337801 0.8289,-2.0886 1.7232,-2.3528c3.5085,-1.0336 7.424701,-1.515301 11.6823,-1.515301c7.227301,0 14.831202,1.486601 20.385702,4.748901c0.748497,0.424 1.268299,1.063499 1.268299,2.235199c-0.000099,1.3416 -1.078701,2.305799 -2.3218,2.305799z"/>
 </g>
</svg>