<svg width="512" height="512" xmlns="http://www.w3.org/2000/svg">

 <g>
  <title>background</title>
  <rect fill="none" id="canvas_background" height="402" width="582" y="-1" x="-1"/>
 </g>
 <g>
  <title>Layer 1</title>
  <path id="svg_2" fill="#ffffff" d="m476.386993,144.888c-5.291016,-19.918999 -20.877991,-35.608002 -40.669983,-40.932999c-35.872009,-9.673004 -179.71701,-9.673004 -179.71701,-9.673004s-143.845001,0 -179.718987,9.674004c-19.791004,5.324997 -35.378002,21.013 -40.668003,40.933006c-9.612,36.104996 -9.612,111.437988 -9.612,111.437988s0,75.334015 9.612,111.438019c5.290001,19.919983 20.876999,34.954987 40.668003,40.280975c35.873985,9.673004 179.718987,9.673004 179.718987,9.673004s143.845001,0 179.71701,-9.674011c19.791992,-5.325989 35.378998,-20.360992 40.669983,-40.280975c9.612,-36.104004 9.612,-111.438019 9.612,-111.438019s0,-75.331985 -9.612,-111.437988z"/>
  <polygon id="svg_3" fill="#000000" points="208.954,324.723 208.954,187.93 329.18,256.328   "/>
 </g>
</svg>