<svg width="24" height="24" xmlns="http://www.w3.org/2000/svg">
 <title/>

 <g>
  <title>background</title>
  <rect fill="none" id="canvas_background" height="402" width="582" y="-1" x="-1"/>
 </g>
 <g>
  <title>Layer 1</title>
  <path fill="#ffffff" id="svg_1" d="m21.80731,7.805a2.79915,2.79915 0 0 0 -2.54907,-2.53906c-1.56763,-0.13008 -3.89117,-0.26594 -6.75812,-0.26594c-3.45251,0 -6.05865,0.14105 -7.74353,0.27332a2.79932,2.79932 0 0 0 -2.56409,2.54168c-0.10314,1.08521 -0.1925,2.51844 -0.1925,4.2273c0,1.66632 0.08862,3.07422 0.19128,4.14594a2.79852,2.79852 0 0 0 2.56384,2.53833c1.68482,0.13226 4.29145,0.27343 7.745,0.27343c2.86694,0 5.19049,-0.13586 6.75812,-0.266a2.799,2.799 0 0 0 2.54907,-2.539c0.10321,-1.07952 0.19269,-2.50311 0.19269,-4.195s-0.08948,-3.11548 -0.19269,-4.195zm-12.03137,7.13378l0,-5.87756l5.79806,2.93878l-5.79806,2.93878z"/>
 </g>
</svg>